<svg width="24" height="24" viewBox="0 0 24 24" fill="none" xmlns="http://www.w3.org/2000/svg">
<path d="M21.0001 6C21.4122 6 21.6473 5.52962 21.4001 5.2L19.4001 2.53333C19.2001 2.26667 18.8001 2.26667 18.6001 2.53333L16.6001 5.2C16.3529 5.52962 16.5881 6 17.0001 6H18.0001V10H17.0001C16.5881 10 16.3529 10.4704 16.6001 10.8L18.6001 13.4667C18.8001 13.7333 19.2001 13.7333 19.4001 13.4667L21.4001 10.8C21.6473 10.4704 21.4122 10 21.0001 10H20.0001V6H21.0001ZM10.5006 4C9.78273 4 9.14013 4.44532 8.88806 5.11751L3.8138 18.6489C3.56864 19.3026 4.0526 20 4.7508 20C5.16765 20 5.54109 19.7414 5.68746 19.3511L7.31913 15H13.6821L15.3138 19.3511C15.4602 19.7414 15.8336 20 16.2505 20C16.9487 20 17.4326 19.3026 17.1875 18.6489L12.1132 5.11751C11.8611 4.44532 11.2185 4 10.5006 4ZM8.06813 13L10.5001 6.515L12.9321 13H8.06813Z" fill="white"/>
</svg>
