<svg width="25" height="24" viewBox="0 0 25 24" fill="none" xmlns="http://www.w3.org/2000/svg">
<path d="M21.556 12H19.556C19.2907 12 19.0364 12.1054 18.8489 12.2929C18.6613 12.4804 18.556 12.7348 18.556 13C18.556 13.2652 18.6613 13.5196 18.8489 13.7071C19.0364 13.8946 19.2907 14 19.556 14V16H18.37C18.4888 15.6798 18.5513 15.3415 18.555 15C18.5549 14.3396 18.337 13.6977 17.935 13.1738C17.533 12.6499 16.9693 12.2733 16.3314 12.1024C15.6935 11.9314 15.0171 11.9758 14.407 12.2285C13.7969 12.4812 13.2872 12.9281 12.957 13.5C12.8903 13.6138 12.8467 13.7396 12.8289 13.8703C12.811 14.0009 12.8192 14.1339 12.8529 14.2614C12.8866 14.3889 12.9452 14.5084 13.0253 14.6132C13.1054 14.7179 13.2054 14.8058 13.3196 14.8718C13.4338 14.9377 13.56 14.9804 13.6907 14.9974C13.8215 15.0144 13.9544 15.0054 14.0817 14.9708C14.2089 14.9363 14.3281 14.8769 14.4323 14.7961C14.5366 14.7153 14.6238 14.6147 14.689 14.5C14.7767 14.348 14.903 14.2218 15.055 14.134C15.207 14.0462 15.3794 14 15.555 14C15.8202 14 16.0745 14.1054 16.2621 14.2929C16.4496 14.4804 16.555 14.7348 16.555 15C16.555 15.2652 16.4496 15.5196 16.2621 15.7071C16.0745 15.8946 15.8202 16 15.555 16C15.2897 16 15.0354 16.1054 14.8479 16.2929C14.6603 16.4804 14.555 16.7348 14.555 17C14.555 17.2652 14.6603 17.5196 14.8479 17.7071C15.0354 17.8946 15.2897 18 15.555 18C15.8202 18 16.0745 18.1054 16.2621 18.2929C16.4496 18.4804 16.555 18.7348 16.555 19C16.555 19.2652 16.4496 19.5196 16.2621 19.7071C16.0745 19.8946 15.8202 20 15.555 20C15.3794 20 15.207 19.9538 15.055 19.866C14.903 19.7783 14.7767 19.652 14.689 19.5C14.6238 19.3854 14.5366 19.2847 14.4323 19.2039C14.3281 19.1231 14.2089 19.0637 14.0817 19.0292C13.9544 18.9946 13.8215 18.9856 13.6907 19.0026C13.56 19.0196 13.4338 19.0623 13.3196 19.1282C13.2054 19.1942 13.1054 19.2821 13.0253 19.3868C12.9452 19.4916 12.8866 19.6112 12.8529 19.7387C12.8192 19.8662 12.811 19.9991 12.8289 20.1297C12.8467 20.2604 12.8903 20.3862 12.957 20.5C13.2872 21.0719 13.7969 21.5188 14.407 21.7715C15.0171 22.0242 15.6935 22.0686 16.3314 21.8976C16.9693 21.7267 17.533 21.3501 17.935 20.8262C18.337 20.3023 18.5549 19.6604 18.555 19C18.5513 18.6585 18.4888 18.3202 18.37 18H19.555V21C19.555 21.2652 19.6603 21.5196 19.8479 21.7071C20.0354 21.8946 20.2897 22 20.555 22C20.8202 22 21.0745 21.8946 21.2621 21.7071C21.4496 21.5196 21.555 21.2652 21.555 21V14C21.8202 14 22.0745 13.8946 22.2621 13.7071C22.4496 13.5196 22.555 13.2652 22.555 13C22.555 12.7348 22.4496 12.4804 22.2621 12.2929C22.0745 12.1054 21.8212 12 21.556 12ZM9.58496 11.243C9.6161 11.3712 9.6723 11.492 9.75032 11.5983C9.82834 11.7047 9.92664 11.7946 10.0396 11.8628C10.1525 11.9311 10.2778 11.9763 10.4082 11.9958C10.5387 12.0154 10.6717 12.009 10.7997 11.977C10.9277 11.9449 11.048 11.8878 11.1538 11.8091C11.2597 11.7303 11.3489 11.6313 11.4163 11.5179C11.4837 11.4045 11.528 11.2789 11.5466 11.1483C11.5653 11.0177 11.5579 10.8847 11.525 10.757L9.76796 3.727C9.64505 3.23319 9.36047 2.79468 8.95953 2.4813C8.55859 2.16792 8.06434 1.99768 7.55546 1.99768C7.04658 1.99768 6.55232 2.16792 6.15138 2.4813C5.75044 2.79468 5.46587 3.23319 5.34296 3.727L3.58496 10.757C3.55199 10.8847 3.54462 11.0177 3.56327 11.1483C3.58193 11.2789 3.62624 11.4045 3.69365 11.5179C3.76106 11.6313 3.85025 11.7303 3.95607 11.8091C4.06189 11.8878 4.18225 11.9449 4.31022 11.977C4.43818 12.009 4.57123 12.0154 4.70169 11.9958C4.83215 11.9763 4.95745 11.9311 5.07036 11.8628C5.18328 11.7946 5.28157 11.7047 5.35959 11.5983C5.43761 11.492 5.49381 11.3712 5.52496 11.243L6.08496 9H9.02496L9.58496 11.243ZM6.58596 7L7.28296 4.213C7.30398 4.15762 7.34135 4.10993 7.39011 4.07628C7.43887 4.04264 7.49671 4.02461 7.55596 4.02461C7.6152 4.02461 7.67304 4.04264 7.7218 4.07628C7.77056 4.10993 7.80794 4.15762 7.82896 4.213L8.52596 7H6.58596ZM14.556 7H15.556C15.8211 7.00027 16.0753 7.10571 16.2628 7.29319C16.4503 7.48067 16.5557 7.73487 16.556 8V9C16.556 9.26522 16.6613 9.51958 16.8489 9.70711C17.0364 9.89465 17.2907 10 17.556 10C17.8212 10 18.0755 9.89465 18.2631 9.70711C18.4506 9.51958 18.556 9.26522 18.556 9V8C18.5552 7.2046 18.2388 6.442 17.6764 5.87956C17.114 5.31712 16.3514 5.0008 15.556 5H14.556C14.2907 5 14.0364 5.10536 13.8489 5.2929C13.6613 5.48043 13.556 5.73479 13.556 6C13.556 6.26522 13.6613 6.51958 13.8489 6.70711C14.0364 6.89465 14.2907 7 14.556 7ZM10.556 16H9.55596C9.29082 15.9997 9.03662 15.8943 8.84914 15.7068C8.66166 15.5193 8.55622 15.2651 8.55596 15V14C8.55596 13.7348 8.4506 13.4804 8.26306 13.2929C8.07553 13.1054 7.82117 13 7.55596 13C7.29074 13 7.03639 13.1054 6.84885 13.2929C6.66131 13.4804 6.55596 13.7348 6.55596 14V15C6.55675 15.7954 6.87308 16.558 7.43551 17.1204C7.99795 17.6829 8.76055 17.9992 9.55596 18H10.556C10.8212 18 11.0755 17.8946 11.2631 17.7071C11.4506 17.5196 11.556 17.2652 11.556 17C11.556 16.7348 11.4506 16.4804 11.2631 16.2929C11.0755 16.1054 10.8212 16 10.556 16Z" fill="white"/>
</svg>
