<svg width="25" height="24" viewBox="0 0 25 24" fill="none" xmlns="http://www.w3.org/2000/svg">
<path fill-rule="evenodd" clip-rule="evenodd" d="M12.0715 0C10.7321 0 9.44752 0.532082 8.50041 1.47919C7.55329 2.42631 7.02121 3.71087 7.02121 5.05029V10.9217C7.02121 11.5849 7.15184 12.2416 7.40564 12.8544C7.65944 13.4671 8.03144 14.0238 8.50041 14.4928C8.96937 14.9618 9.52611 15.3338 10.1388 15.5876C10.7516 15.8414 11.4083 15.972 12.0715 15.972C12.7347 15.972 13.3914 15.8414 14.0042 15.5876C14.6169 15.3338 15.1736 14.9618 15.6426 14.4928C16.1116 14.0238 16.4836 13.4671 16.7374 12.8544C16.9912 12.2416 17.1218 11.5849 17.1218 10.9217V5.05029C17.1218 3.71087 16.5897 2.42631 15.6426 1.47919C14.6955 0.532082 13.4109 0 12.0715 0ZM10.7858 20.5851V22.6629C10.7858 23.0039 10.9212 23.3309 11.1624 23.572C11.4035 23.8131 11.7305 23.9486 12.0715 23.9486C12.4125 23.9486 12.7395 23.8131 12.9806 23.572C13.2218 23.3309 13.3572 23.0039 13.3572 22.6629V20.5834C15.6673 20.4733 17.8464 19.4781 19.4423 17.8043C21.0383 16.1304 21.9286 13.9065 21.9286 11.5937C21.9286 11.2527 21.7932 10.9257 21.5521 10.6846C21.3109 10.4435 20.9839 10.308 20.6429 10.308C20.3019 10.308 19.9749 10.4435 19.7338 10.6846C19.4927 10.9257 19.3572 11.2527 19.3572 11.5937C19.3572 13.2987 18.6799 14.9338 17.4743 16.1394C16.2687 17.345 14.6336 18.0223 12.9286 18.0223H11.2144C9.50939 18.0223 7.87426 17.345 6.66867 16.1394C5.46308 14.9338 4.78578 13.2987 4.78578 11.5937C4.78578 11.4249 4.75253 11.2577 4.68792 11.1017C4.6233 10.9457 4.5286 10.804 4.40921 10.6846C4.28982 10.5652 4.14808 10.4705 3.99209 10.4059C3.8361 10.3413 3.66891 10.308 3.50007 10.308C3.33123 10.308 3.16404 10.3413 3.00805 10.4059C2.85206 10.4705 2.71032 10.5652 2.59093 10.6846C2.47154 10.804 2.37684 10.9457 2.31222 11.1017C2.24761 11.2577 2.21436 11.4249 2.21436 11.5937C2.21393 13.9068 3.10407 16.1312 4.70007 17.8053C6.29606 19.4795 8.47537 20.475 10.7858 20.5851Z" fill="white"/>
</svg>
